<?xml version="1.0" encoding="UTF-8"?>
<svg id="Ebene_2" xmlns="http://www.w3.org/2000/svg" viewBox="0 0 283.47 70.87">
  <defs>
    <style>
      .cls-1 {
        fill: #fff;
      }
    </style>
  </defs>
  <g id="Content">
    <g>
      <circle class="cls-1" cx="27.63" cy="35.43" r="14.93"/>
      <circle class="cls-1" cx="27.63" cy="35.43" r="14.93"/>
      <path class="cls-1" d="M69.76,69.76h46.17v-12.44h-31.89v-15.76h30.04v-12.44h-30.04v-15.57h31.89V1.11h-46.17v68.65ZM186.9,69.76h14.28V1.11h-14.28v68.65ZM40.9,19.5c5.25-.58,9.21.39,10.64,3.05,2.23,4.13-2.32,11.13-10.64,17.39v29.84h14.36V1.09h-14.36v18.41ZM0,69.78h14.36v-18.41c-5.25.58-9.21-.39-10.64-3.05-2.23-4.13,2.32-11.13,10.64-17.39V1.09H0v68.69ZM248.03,0c-19.57,0-35.43,15.86-35.43,35.43s15.86,35.43,35.43,35.43,35.43-15.86,35.43-35.43S267.6,0,248.03,0ZM248.03,57.55c-12.22,0-22.12-9.9-22.12-22.12s9.9-22.12,22.12-22.12,22.12,9.9,22.12,22.12-9.9,22.12-22.12,22.12ZM142.84,1.11h-14.28v68.65h46.17v-12.44h-31.89V1.11Z"/>
    </g>
  </g>
</svg>