<?xml version="1.0" encoding="utf-8"?>
<!-- Generator: Adobe Illustrator 26.5.0, SVG Export Plug-In . SVG Version: 6.00 Build 0)  -->
<svg version="1.1" id="Layer_1" xmlns="http://www.w3.org/2000/svg" xmlns:xlink="http://www.w3.org/1999/xlink" x="0px" y="0px"
	 viewBox="0 0 280.92 35.69" style="enable-background:new 0 0 280.92 35.69;" xml:space="preserve">
<style type="text/css">
	.st0{fill:#FFFFFF;}
</style>
<polygon class="st0" points="26.19,29.34 3.02,0.13 2.92,0 0,0 0,35.14 3.14,35.14 3.14,5.16 26.91,35.14 29.33,35.14 29.33,0 
	26.19,0 "/>
<path class="st0" d="M102.59,17.01c2.55-1.25,5.21-3.62,5.21-8.1v-0.1c0-2.22-0.78-4.12-2.32-5.66c-2.03-2.03-5.3-3.15-9.2-3.15
	H81.71v35.14h15.31c7.71,0,12.7-3.82,12.7-9.74v-0.1C109.72,21.33,107.26,18.48,102.59,17.01z M95.99,15.9H84.96V3.05h11.28
	c5.1,0,8.27,2.3,8.27,6.01v0.1C104.51,13.32,101.24,15.9,95.99,15.9z M97.12,32.1H84.96V18.95h11.33c6.54,0,10.14,2.26,10.14,6.35
	v0.1C106.43,29.53,102.86,32.1,97.12,32.1z"/>
<path class="st0" d="M147.33,20.48c0,7.76-4.06,12.21-11.13,12.21c-7.2,0-11.33-4.54-11.33-12.46V0h-3.24v20.48
	c0,9.38,5.54,15.21,14.47,15.21c8.93,0,14.47-5.94,14.47-15.5V0h-3.24V20.48z"/>
<polygon class="st0" points="167.75,0 164.51,0 164.51,35.14 187.98,35.14 187.98,32.1 167.75,32.1 "/>
<rect x="200.24" class="st0" width="3.24" height="35.14"/>
<polygon class="st0" points="215.85,3.05 227.86,3.05 227.86,35.14 231.1,35.14 231.1,3.05 243.11,3.05 243.11,0 215.85,0 "/>
<g>
	<polygon class="st0" points="42.81,35.14 68.26,35.14 68.26,32.1 46.05,32.1 42.81,32.1 	"/>
	<polygon class="st0" points="46.37,15.9 42.81,15.9 42.81,18.95 46.37,18.95 68.01,18.95 68.01,15.9 	"/>
	<polygon class="st0" points="68.01,3.05 68.01,0 42.81,0 42.81,3.05 46.05,3.05 	"/>
</g>
<g>
	<polygon class="st0" points="255.47,35.14 280.92,35.14 280.92,32.1 258.72,32.1 255.47,32.1 	"/>
	<polygon class="st0" points="259.03,15.9 255.47,15.9 255.47,18.95 259.03,18.95 280.67,18.95 280.67,15.9 	"/>
	<polygon class="st0" points="280.67,3.05 280.67,0 255.47,0 255.47,3.05 258.72,3.05 	"/>
</g>
<text transform="matrix(1 0 0 1 39.3705 59.6409)" style="display:none;fill:#FFFFFF; font-family:'Gotham-Light'; font-size:17.9px; letter-spacing:3;">OWN THE NIGHT.</text>
</svg>
